<mxfile host="app.diagrams.net" modified="2022-12-04T08:46:41.041Z" agent="5.0 (Windows NT 10.0; Win64; x64) AppleWebKit/537.36 (KHTML, like Gecko) Chrome/108.0.0.0 Safari/537.36" version="20.6.0" etag="XN2ZevT45fGlXctJTiWv" type="github">
  <diagram id="jRTN0cFvYoGHmCCxgY_o" name="第 1 页">
    <mxGraphModel dx="865" dy="456" grid="1" gridSize="10" guides="1" tooltips="1" connect="1" arrows="1" fold="1" page="1" pageScale="1" pageWidth="827" pageHeight="1169" math="1" shadow="0">
      <root>
        <mxCell id="0" />
        <mxCell id="1" parent="0" />
        <mxCell id="Br2PCXPAsLtzKkhdz4Kh-1" value="$$\mathcal{A} \ni \mathcal{a}_{(x,y,z,t)}$$" style="text;html=1;strokeColor=none;fillColor=none;align=center;verticalAlign=middle;whiteSpace=wrap;rounded=0;" vertex="1" parent="1">
          <mxGeometry x="60" y="157.5" width="60" height="30" as="geometry" />
        </mxCell>
        <mxCell id="Br2PCXPAsLtzKkhdz4Kh-2" value="" style="endArrow=classic;html=1;rounded=0;" edge="1" parent="1">
          <mxGeometry width="50" height="50" relative="1" as="geometry">
            <mxPoint x="190" y="174.79999999999995" as="sourcePoint" />
            <mxPoint x="240" y="174.79999999999995" as="targetPoint" />
          </mxGeometry>
        </mxCell>
        <mxCell id="Br2PCXPAsLtzKkhdz4Kh-3" value="$$\mathcal{F}$$" style="text;html=1;strokeColor=none;fillColor=none;align=center;verticalAlign=middle;whiteSpace=wrap;rounded=0;" vertex="1" parent="1">
          <mxGeometry x="180" y="140" width="60" height="30" as="geometry" />
        </mxCell>
        <mxCell id="Br2PCXPAsLtzKkhdz4Kh-6" value="" style="endArrow=classic;html=1;rounded=0;" edge="1" parent="1">
          <mxGeometry width="50" height="50" relative="1" as="geometry">
            <mxPoint x="680" y="174.79999999999995" as="sourcePoint" />
            <mxPoint x="730" y="174.79999999999995" as="targetPoint" />
          </mxGeometry>
        </mxCell>
        <mxCell id="Br2PCXPAsLtzKkhdz4Kh-7" value="$$\mathcal{G}$$" style="text;html=1;strokeColor=none;fillColor=none;align=center;verticalAlign=middle;whiteSpace=wrap;rounded=0;" vertex="1" parent="1">
          <mxGeometry x="670" y="140" width="60" height="25" as="geometry" />
        </mxCell>
        <mxCell id="Br2PCXPAsLtzKkhdz4Kh-8" value="$$ \mathcal{u}_{(x,y,z,t)} \in \mathcal{U}$$" style="text;html=1;strokeColor=none;fillColor=none;align=center;verticalAlign=middle;whiteSpace=wrap;rounded=0;" vertex="1" parent="1">
          <mxGeometry x="800" y="160" width="60" height="30" as="geometry" />
        </mxCell>
        <mxCell id="Br2PCXPAsLtzKkhdz4Kh-9" value="" style="rounded=0;whiteSpace=wrap;html=1;" vertex="1" parent="1">
          <mxGeometry x="250" y="156.25" width="80" height="37.5" as="geometry" />
        </mxCell>
        <mxCell id="Br2PCXPAsLtzKkhdz4Kh-11" value="" style="rounded=0;whiteSpace=wrap;html=1;" vertex="1" parent="1">
          <mxGeometry x="400" y="156.25" width="80" height="37.5" as="geometry" />
        </mxCell>
        <mxCell id="Br2PCXPAsLtzKkhdz4Kh-12" value="" style="endArrow=classic;html=1;rounded=0;" edge="1" parent="1">
          <mxGeometry width="50" height="50" relative="1" as="geometry">
            <mxPoint x="340" y="174.75999999999996" as="sourcePoint" />
            <mxPoint x="390" y="174.75999999999996" as="targetPoint" />
          </mxGeometry>
        </mxCell>
        <mxCell id="Br2PCXPAsLtzKkhdz4Kh-13" value="" style="rounded=0;whiteSpace=wrap;html=1;" vertex="1" parent="1">
          <mxGeometry x="580" y="156.25" width="80" height="37.5" as="geometry" />
        </mxCell>
        <mxCell id="Br2PCXPAsLtzKkhdz4Kh-14" value="" style="endArrow=classic;html=1;rounded=0;" edge="1" parent="1">
          <mxGeometry width="50" height="50" relative="1" as="geometry">
            <mxPoint x="520" y="174.76" as="sourcePoint" />
            <mxPoint x="570" y="174.76" as="targetPoint" />
          </mxGeometry>
        </mxCell>
        <mxCell id="Br2PCXPAsLtzKkhdz4Kh-15" value="$$\cdots$$" style="text;html=1;strokeColor=none;fillColor=none;align=center;verticalAlign=middle;whiteSpace=wrap;rounded=0;" vertex="1" parent="1">
          <mxGeometry x="470" y="160" width="60" height="25" as="geometry" />
        </mxCell>
        <mxCell id="Br2PCXPAsLtzKkhdz4Kh-16" value="" style="endArrow=none;dashed=1;html=1;dashPattern=1 3;strokeWidth=2;rounded=0;" edge="1" parent="1">
          <mxGeometry width="50" height="50" relative="1" as="geometry">
            <mxPoint x="240" y="280" as="sourcePoint" />
            <mxPoint x="400" y="193.75" as="targetPoint" />
          </mxGeometry>
        </mxCell>
        <mxCell id="Br2PCXPAsLtzKkhdz4Kh-17" value="" style="endArrow=none;dashed=1;html=1;dashPattern=1 3;strokeWidth=2;rounded=0;" edge="1" parent="1">
          <mxGeometry width="50" height="50" relative="1" as="geometry">
            <mxPoint x="640" y="280" as="sourcePoint" />
            <mxPoint x="480" y="193.75" as="targetPoint" />
          </mxGeometry>
        </mxCell>
        <mxCell id="Br2PCXPAsLtzKkhdz4Kh-20" value="" style="ellipse;whiteSpace=wrap;html=1;aspect=fixed;" vertex="1" parent="1">
          <mxGeometry x="135" y="148.75" width="45" height="45" as="geometry" />
        </mxCell>
        <mxCell id="Br2PCXPAsLtzKkhdz4Kh-21" value="" style="ellipse;whiteSpace=wrap;html=1;aspect=fixed;" vertex="1" parent="1">
          <mxGeometry x="740" y="152.5" width="45" height="45" as="geometry" />
        </mxCell>
        <mxCell id="Br2PCXPAsLtzKkhdz4Kh-24" value="$$V_{1}$$" style="text;html=1;strokeColor=none;fillColor=none;align=center;verticalAlign=middle;whiteSpace=wrap;rounded=0;" vertex="1" parent="1">
          <mxGeometry x="202.5" y="297.5" width="60" height="30" as="geometry" />
        </mxCell>
        <mxCell id="Br2PCXPAsLtzKkhdz4Kh-22" value="" style="ellipse;whiteSpace=wrap;html=1;aspect=fixed;fillColor=none;" vertex="1" parent="1">
          <mxGeometry x="210" y="290" width="45" height="45" as="geometry" />
        </mxCell>
        <mxCell id="Br2PCXPAsLtzKkhdz4Kh-23" value="Feature" style="text;html=1;strokeColor=none;fillColor=none;align=center;verticalAlign=middle;whiteSpace=wrap;rounded=0;" vertex="1" parent="1">
          <mxGeometry x="150" y="297.5" width="60" height="30" as="geometry" />
        </mxCell>
        <mxCell id="Br2PCXPAsLtzKkhdz4Kh-25" value="" style="rounded=0;whiteSpace=wrap;html=1;" vertex="1" parent="1">
          <mxGeometry x="300" y="260" width="190" height="37.5" as="geometry" />
        </mxCell>
        <mxCell id="Br2PCXPAsLtzKkhdz4Kh-28" value="" style="ellipse;whiteSpace=wrap;html=1;aspect=fixed;" vertex="1" parent="1">
          <mxGeometry x="377.5" y="320" width="45" height="45" as="geometry" />
        </mxCell>
        <mxCell id="Br2PCXPAsLtzKkhdz4Kh-31" value="" style="ellipse;whiteSpace=wrap;html=1;aspect=fixed;" vertex="1" parent="1">
          <mxGeometry x="520" y="290" width="45" height="45" as="geometry" />
        </mxCell>
        <mxCell id="Br2PCXPAsLtzKkhdz4Kh-29" value="W" style="text;html=1;strokeColor=none;fillColor=none;align=center;verticalAlign=middle;whiteSpace=wrap;rounded=0;" vertex="1" parent="1">
          <mxGeometry x="370" y="327.5" width="60" height="30" as="geometry" />
        </mxCell>
        <mxCell id="Br2PCXPAsLtzKkhdz4Kh-32" value="" style="ellipse;whiteSpace=wrap;html=1;aspect=fixed;" vertex="1" parent="1">
          <mxGeometry x="590" y="290" width="45" height="45" as="geometry" />
        </mxCell>
        <mxCell id="Br2PCXPAsLtzKkhdz4Kh-33" value="" style="ellipse;whiteSpace=wrap;html=1;aspect=fixed;" vertex="1" parent="1">
          <mxGeometry x="660" y="290" width="45" height="45" as="geometry" />
        </mxCell>
        <mxCell id="Br2PCXPAsLtzKkhdz4Kh-34" value="$$Layer_{1}$$" style="text;html=1;strokeColor=none;fillColor=none;align=center;verticalAlign=middle;whiteSpace=wrap;rounded=0;" vertex="1" parent="1">
          <mxGeometry x="262.5" y="160" width="60" height="30" as="geometry" />
        </mxCell>
        <mxCell id="Br2PCXPAsLtzKkhdz4Kh-35" value="$$Layer_{2}$$" style="text;html=1;strokeColor=none;fillColor=none;align=center;verticalAlign=middle;whiteSpace=wrap;rounded=0;" vertex="1" parent="1">
          <mxGeometry x="410" y="160" width="60" height="30" as="geometry" />
        </mxCell>
        <mxCell id="Br2PCXPAsLtzKkhdz4Kh-36" value="$$Layer_{L}$$" style="text;html=1;strokeColor=none;fillColor=none;align=center;verticalAlign=middle;whiteSpace=wrap;rounded=0;" vertex="1" parent="1">
          <mxGeometry x="590" y="157.5" width="60" height="30" as="geometry" />
        </mxCell>
        <mxCell id="Br2PCXPAsLtzKkhdz4Kh-37" value="+" style="text;html=1;strokeColor=none;fillColor=none;align=center;verticalAlign=middle;whiteSpace=wrap;rounded=0;" vertex="1" parent="1">
          <mxGeometry x="512.5" y="297.5" width="60" height="30" as="geometry" />
        </mxCell>
        <mxCell id="Br2PCXPAsLtzKkhdz4Kh-38" value="$$\sigma$$" style="text;html=1;strokeColor=none;fillColor=none;align=center;verticalAlign=middle;whiteSpace=wrap;rounded=0;" vertex="1" parent="1">
          <mxGeometry x="582.5" y="297.5" width="60" height="30" as="geometry" />
        </mxCell>
        <mxCell id="Br2PCXPAsLtzKkhdz4Kh-39" value="$$V_{2}$$" style="text;html=1;strokeColor=none;fillColor=none;align=center;verticalAlign=middle;whiteSpace=wrap;rounded=0;" vertex="1" parent="1">
          <mxGeometry x="652.5" y="297.5" width="60" height="30" as="geometry" />
        </mxCell>
        <mxCell id="Br2PCXPAsLtzKkhdz4Kh-40" value="" style="curved=1;endArrow=classic;html=1;rounded=0;exitX=1;exitY=0.5;exitDx=0;exitDy=0;entryX=0;entryY=0.5;entryDx=0;entryDy=0;strokeColor=#FF3333;" edge="1" parent="1" source="Br2PCXPAsLtzKkhdz4Kh-22" target="Br2PCXPAsLtzKkhdz4Kh-25">
          <mxGeometry width="50" height="50" relative="1" as="geometry">
            <mxPoint x="270" y="297.5" as="sourcePoint" />
            <mxPoint x="305" y="247.5" as="targetPoint" />
            <Array as="points">
              <mxPoint x="280" y="290" />
            </Array>
          </mxGeometry>
        </mxCell>
        <mxCell id="Br2PCXPAsLtzKkhdz4Kh-43" value="" style="curved=1;endArrow=classic;html=1;rounded=0;exitX=1;exitY=0.5;exitDx=0;exitDy=0;entryX=0;entryY=0.5;entryDx=0;entryDy=0;strokeColor=#006633;" edge="1" parent="1" source="Br2PCXPAsLtzKkhdz4Kh-22" target="Br2PCXPAsLtzKkhdz4Kh-28">
          <mxGeometry width="50" height="50" relative="1" as="geometry">
            <mxPoint x="264.9999999999999" y="322.5" as="sourcePoint" />
            <mxPoint x="350" y="350" as="targetPoint" />
            <Array as="points">
              <mxPoint x="290" y="350" />
            </Array>
          </mxGeometry>
        </mxCell>
        <mxCell id="Br2PCXPAsLtzKkhdz4Kh-46" value="" style="curved=1;endArrow=classic;html=1;rounded=0;exitX=1;exitY=0.5;exitDx=0;exitDy=0;entryX=0;entryY=0.5;entryDx=0;entryDy=0;strokeColor=#006633;" edge="1" parent="1" source="Br2PCXPAsLtzKkhdz4Kh-28" target="Br2PCXPAsLtzKkhdz4Kh-31">
          <mxGeometry width="50" height="50" relative="1" as="geometry">
            <mxPoint x="429.9999999999999" y="340" as="sourcePoint" />
            <mxPoint x="520" y="350" as="targetPoint" />
            <Array as="points">
              <mxPoint x="480" y="350" />
            </Array>
          </mxGeometry>
        </mxCell>
        <mxCell id="Br2PCXPAsLtzKkhdz4Kh-47" value="" style="curved=1;endArrow=classic;html=1;rounded=0;exitX=1;exitY=0.5;exitDx=0;exitDy=0;entryX=0;entryY=0.5;entryDx=0;entryDy=0;strokeColor=#FF3333;" edge="1" parent="1" source="Br2PCXPAsLtzKkhdz4Kh-25" target="Br2PCXPAsLtzKkhdz4Kh-31">
          <mxGeometry width="50" height="50" relative="1" as="geometry">
            <mxPoint x="499.9999999999998" y="270" as="sourcePoint" />
            <mxPoint x="597.5000000000002" y="240" as="targetPoint" />
            <Array as="points">
              <mxPoint x="500" y="280" />
            </Array>
          </mxGeometry>
        </mxCell>
        <mxCell id="Br2PCXPAsLtzKkhdz4Kh-49" value="" style="endArrow=classic;html=1;rounded=0;exitX=1;exitY=0.5;exitDx=0;exitDy=0;entryX=0;entryY=0.5;entryDx=0;entryDy=0;" edge="1" parent="1" source="Br2PCXPAsLtzKkhdz4Kh-31" target="Br2PCXPAsLtzKkhdz4Kh-32">
          <mxGeometry width="50" height="50" relative="1" as="geometry">
            <mxPoint x="530" y="350" as="sourcePoint" />
            <mxPoint x="570" y="350" as="targetPoint" />
          </mxGeometry>
        </mxCell>
        <mxCell id="Br2PCXPAsLtzKkhdz4Kh-50" value="" style="endArrow=classic;html=1;rounded=0;exitX=1;exitY=0.5;exitDx=0;exitDy=0;entryX=0;entryY=0.5;entryDx=0;entryDy=0;" edge="1" parent="1" source="Br2PCXPAsLtzKkhdz4Kh-32" target="Br2PCXPAsLtzKkhdz4Kh-33">
          <mxGeometry width="50" height="50" relative="1" as="geometry">
            <mxPoint x="575.0000000000018" y="322.5" as="sourcePoint" />
            <mxPoint x="599.9999999999982" y="322.5" as="targetPoint" />
          </mxGeometry>
        </mxCell>
        <mxCell id="Br2PCXPAsLtzKkhdz4Kh-52" value="$$\int_{}^{} k(x,y)v(y)\,du(y)&amp;nbsp; +b(x)$$" style="text;html=1;strokeColor=none;fillColor=none;align=center;verticalAlign=middle;whiteSpace=wrap;rounded=0;" vertex="1" parent="1">
          <mxGeometry x="308.75" y="263.75" width="172.5" height="30" as="geometry" />
        </mxCell>
      </root>
    </mxGraphModel>
  </diagram>
</mxfile>
